<svg width="218" height="218" viewBox="0 0 218 218" fill="none" xmlns="http://www.w3.org/2000/svg">
<g filter="url(#filter0_d)">
<circle cx="109" cy="92" r="75" fill="white"/>
</g>
<path d="M95 83H144V122C144 127.523 139.523 132 134 132H95V83Z" fill="#86D7AF" fill-opacity="0.2"/>
<path d="M130.016 91.8224V90.6553C130.016 87.5848 127.518 85.0867 124.448 85.0867H114.92C114.751 83.9042 114.207 82.8123 113.347 81.9524C113.015 81.6196 112.642 81.3354 112.243 81.099V75.8866C116.438 73.6406 119.079 69.2885 119.079 64.4439C119.079 58.8172 115.49 53.8582 110.149 52.1038C108.824 51.6689 107.458 52.6566 107.458 54.0522V64.2416H104.723V54.0521C104.723 52.6559 103.356 51.6686 102.033 52.1038C96.7054 53.854 93.1167 58.7988 93.1023 64.4089C93.0907 69.2937 95.8315 73.6516 99.9383 75.8728V80.342C97.3175 80.4969 95.1833 81.707 94.6176 82.2102L89.2886 86.9488H76.0508C74.9182 86.9488 74 87.867 74 88.9995V114.687C74 115.82 74.9182 116.738 76.0508 116.738H86.2363C88.6963 116.738 91.3482 118.117 93.9129 119.451C96.0448 120.56 98.5422 122 102.472 122H120.346C123.417 122 125.915 119.502 125.915 116.431V115.264C125.915 114.282 125.658 113.36 125.21 112.558C126.473 111.536 127.282 109.975 127.282 108.228V107.061C127.282 106.079 127.025 105.157 126.577 104.355C127.84 103.333 128.649 101.772 128.649 100.026V98.858C128.649 97.8763 128.393 96.9536 127.945 96.1517C129.207 95.13 130.016 93.5692 130.016 91.8224ZM125.915 90.6553V91.8224C125.915 92.6313 125.257 93.2896 124.448 93.2896C123.407 93.2896 116.14 93.2896 114.977 93.2896V89.1882H124.448C125.257 89.1882 125.915 89.8464 125.915 90.6553ZM124.548 98.858V100.026C124.548 100.834 123.89 101.493 123.081 101.493C122.224 101.493 115.812 101.493 114.887 101.493C114.945 101.154 114.977 100.807 114.977 100.452V97.3911H123.081C123.889 97.3911 124.548 98.0492 124.548 98.858ZM123.18 107.061V108.228C123.18 109.037 122.522 109.696 121.713 109.696C120.712 109.696 113.98 109.696 112.926 109.696C111.795 109.696 110.875 108.776 110.875 107.645C110.875 106.514 111.795 105.594 112.926 105.594H112.927H121.713C122.522 105.594 123.18 106.252 123.18 107.061ZM97.2039 64.4192C97.211 61.6278 98.5115 59.077 100.622 57.4327V64.4343C100.622 66.5896 102.375 68.343 104.531 68.343H107.651C109.806 68.343 111.559 66.5896 111.559 64.4343V57.432C113.676 59.0807 114.977 61.6413 114.977 64.4439C114.977 68.0851 112.797 71.3198 109.423 72.6845C108.648 72.9978 108.141 73.7499 108.141 74.5856V80.3221H104.04V74.5774C104.04 73.7441 103.536 72.9937 102.764 72.6787C99.4298 71.3173 97.1953 67.9978 97.2039 64.4192ZM95.8055 115.812C92.9432 114.324 89.699 112.636 86.2363 112.636H78.1016V91.0502H90.0685C90.571 91.0502 91.0559 90.8657 91.4314 90.532L97.2244 85.3807C98.2227 84.7542 99.3717 84.4236 100.556 84.4236H109.412C110.218 84.4236 110.876 85.0764 110.876 85.8865V100.452C110.876 101.583 109.956 102.503 108.825 102.503C107.693 102.503 106.774 101.585 106.774 100.452V93.2705C106.774 92.2041 105.964 91.2773 104.901 91.1885C103.844 91.1002 102.902 91.7952 102.718 92.8381C102.604 93.2679 101.644 96.1732 96.5189 96.1732C95.3864 96.1732 94.4682 97.0914 94.4682 98.2239C94.4682 99.3565 95.3864 100.275 96.5189 100.275C99.2316 100.275 101.227 99.6406 102.673 98.8221V100.453C102.673 103.209 104.477 105.512 106.923 106.304C106.486 108.26 107.024 110.272 108.345 111.747C106.837 113.43 106.377 115.785 107.127 117.899H102.472C99.6722 117.899 97.9385 116.922 95.8055 115.812ZM121.813 116.431C121.813 117.24 121.155 117.899 120.346 117.899H112.927H112.926C111.795 117.899 110.875 116.979 110.875 115.848C110.875 114.717 111.795 113.797 112.926 113.797H120.346C121.155 113.797 121.813 114.455 121.813 115.264V116.431Z" fill="#86D7AF"/>
<defs>
<filter id="filter0_d" x="0" y="0" width="218" height="218" filterUnits="userSpaceOnUse" color-interpolation-filters="sRGB">
<feFlood flood-opacity="0" result="BackgroundImageFix"/>
<feColorMatrix in="SourceAlpha" type="matrix" values="0 0 0 0 0 0 0 0 0 0 0 0 0 0 0 0 0 0 127 0"/>
<feMorphology radius="10" operator="erode" in="SourceAlpha" result="effect1_dropShadow"/>
<feOffset dy="17"/>
<feGaussianBlur stdDeviation="22"/>
<feColorMatrix type="matrix" values="0 0 0 0 0 0 0 0 0 0 0 0 0 0 0 0 0 0 0.1 0"/>
<feBlend mode="normal" in2="BackgroundImageFix" result="effect1_dropShadow"/>
<feBlend mode="normal" in="SourceGraphic" in2="effect1_dropShadow" result="shape"/>
</filter>
</defs>
</svg>
