<svg width="218" height="218" viewBox="0 0 218 218" fill="none" xmlns="http://www.w3.org/2000/svg">
<g filter="url(#filter0_d)">
<circle cx="109" cy="92" r="75" fill="white"/>
</g>
<path d="M95.9192 86.4282L102.671 91.3338L100.092 99.2712C99.8177 100.116 100.118 101.042 100.837 101.564C101.197 101.825 101.62 101.956 102.043 101.956C102.466 101.956 102.889 101.825 103.248 101.564L110 96.6585L116.752 101.564C117.471 102.086 118.444 102.086 119.163 101.564C119.882 101.042 120.182 100.116 119.908 99.2712L117.329 91.3338L124.081 86.4282C124.8 85.9059 125.1 84.9804 124.826 84.1353C124.551 83.2904 123.764 82.7182 122.875 82.7182H114.529L111.95 74.7809C111.676 73.9359 110.889 73.3638 110 73.3638C109.111 73.3638 108.324 73.9358 108.05 74.7809L105.47 82.7182H97.1246C96.2361 82.7182 95.4487 83.2902 95.1742 84.1353C94.8997 84.9804 95.2005 85.9061 95.9192 86.4282ZM106.961 86.8199C107.849 86.8199 108.636 86.2479 108.911 85.4028L110 82.0512L111.089 85.403C111.364 86.2479 112.151 86.82 113.04 86.82H116.564L113.712 88.8915C112.994 89.4137 112.693 90.3393 112.967 91.1844L114.056 94.536L111.205 92.4646C110.487 91.9424 109.513 91.9424 108.795 92.4646L105.943 94.536L107.032 91.1844C107.307 90.3395 107.006 89.4137 106.287 88.8915L103.436 86.82H106.961V86.8199Z" fill="#F3635C"/>
<path d="M143.29 54.0508C143.29 52.9182 142.371 52 141.239 52H78.7611C77.6285 52 76.7103 52.9182 76.7103 54.0508C76.7103 60.5065 81.1255 65.95 87.0947 67.5214V119.949C87.0947 120.684 87.4877 121.362 88.1249 121.728C88.7621 122.094 89.5462 122.09 90.1804 121.72L110 110.133L129.82 121.72C130.139 121.906 130.497 122 130.855 122C131.207 122 131.559 121.909 131.875 121.728C132.512 121.362 132.905 120.684 132.905 119.949V67.5214C138.875 65.95 143.29 60.5065 143.29 54.0508ZM128.804 116.375L111.035 105.987C110.715 105.8 110.358 105.706 110 105.706C109.642 105.706 109.285 105.8 108.965 105.987L91.1962 116.375V67.9789H128.804V116.375ZM129.362 63.8773H90.6384C85.9231 63.8773 81.9729 60.5389 81.0271 56.1016H138.973C138.027 60.5389 134.077 63.8773 129.362 63.8773Z" fill="#F3635C"/>
<path d="M72 83H121V132H82C76.4772 132 72 127.523 72 122V83Z" fill="#F3635C" fill-opacity="0.2"/>
<defs>
<filter id="filter0_d" x="0" y="0" width="218" height="218" filterUnits="userSpaceOnUse" color-interpolation-filters="sRGB">
<feFlood flood-opacity="0" result="BackgroundImageFix"/>
<feColorMatrix in="SourceAlpha" type="matrix" values="0 0 0 0 0 0 0 0 0 0 0 0 0 0 0 0 0 0 127 0"/>
<feMorphology radius="10" operator="erode" in="SourceAlpha" result="effect1_dropShadow"/>
<feOffset dy="17"/>
<feGaussianBlur stdDeviation="22"/>
<feColorMatrix type="matrix" values="0 0 0 0 0 0 0 0 0 0 0 0 0 0 0 0 0 0 0.1 0"/>
<feBlend mode="normal" in2="BackgroundImageFix" result="effect1_dropShadow"/>
<feBlend mode="normal" in="SourceGraphic" in2="effect1_dropShadow" result="shape"/>
</filter>
</defs>
</svg>
