<svg width="218" height="218" viewBox="0 0 218 218" fill="none" xmlns="http://www.w3.org/2000/svg">
<g filter="url(#filter0_d)">
<circle cx="109" cy="92" r="75" fill="white"/>
</g>
<g clip-path="url(#clip0)">
<path d="M133.25 85.8047C132.327 82.9446 132.72 78.6512 130.32 75.3362C127.9 71.995 123.692 71.0454 121.315 69.3074C118.964 67.5878 116.777 63.8456 112.821 62.555C108.978 61.3008 105.047 63.0028 102 63.0028C98.9529 63.0028 95.0228 61.3004 91.1786 62.5549C87.2241 63.8452 85.0348 67.5882 82.6851 69.307C80.3113 71.0429 76.0999 71.9952 73.6806 75.3358C71.2819 78.6481 71.6717 82.9513 70.7496 85.8046C69.8722 88.5202 67 91.7795 67 96.0003C67 100.224 69.8689 103.47 70.7496 106.196C71.6733 109.056 71.2796 113.349 73.6804 116.664C76.0999 120.006 80.3081 120.955 82.6846 122.693C85.0355 124.413 87.2234 128.155 91.1786 129.445C95.0196 130.699 98.9561 128.998 102 128.998C105.04 128.998 108.985 130.697 112.821 129.446C116.776 128.155 118.964 124.413 121.315 122.694C123.689 120.958 127.9 120.005 130.319 116.665C132.718 113.352 132.328 109.05 133.25 106.196C134.128 103.48 137 100.221 137 96.0003C137 91.7772 134.132 88.5315 133.25 85.8047ZM128.047 104.514C126.97 107.847 127.252 111.576 125.89 113.457C124.51 115.362 120.885 116.233 118.087 118.279C115.32 120.303 113.381 123.51 111.125 124.246C108.991 124.943 105.514 123.529 102 123.529C98.461 123.529 95.0193 124.946 92.8751 124.246C90.6198 123.51 88.6832 120.305 85.9131 118.279C83.132 116.245 79.4857 115.357 78.1096 113.457C76.7523 111.582 77.0237 107.827 75.9536 104.514C74.9047 101.269 72.4688 98.4586 72.4688 96.0003C72.4688 93.5395 74.9025 90.7389 75.9533 87.4862C77.03 84.1539 76.7479 80.424 78.1096 78.5437C79.4888 76.6395 83.1172 75.7663 85.9131 73.7215C88.6889 71.6914 90.6161 68.4912 92.8748 67.7542C95.007 67.0585 98.4959 68.4718 102 68.4718C105.545 68.4718 108.979 67.0538 111.125 67.7542C113.38 68.49 115.318 71.6969 118.087 73.7217C120.868 75.7556 124.514 76.6439 125.89 78.5439C127.248 80.4184 126.975 84.17 128.046 87.486V87.4861C129.095 90.7317 131.531 93.5419 131.531 96.0003C131.531 98.4611 129.098 101.262 128.047 104.514ZM114.598 87.2236C115.666 88.2915 115.666 90.0228 114.598 91.0906L100.911 104.777C99.8434 105.845 98.112 105.845 97.0442 104.777L89.4025 97.1352C88.3346 96.0673 88.3344 94.336 89.4023 93.2682C90.4702 92.2004 92.2018 92.2003 93.2693 93.2682L98.9777 98.9765L110.73 87.2237C111.798 86.1558 113.53 86.1558 114.598 87.2236Z" fill="#F7CD7A"/>
</g>
<path d="M102 52H141C146.523 52 151 56.4772 151 62V101H102V52Z" fill="#F7CD7A" fill-opacity="0.2"/>
<defs>
<filter id="filter0_d" x="0" y="0" width="218" height="218" filterUnits="userSpaceOnUse" color-interpolation-filters="sRGB">
<feFlood flood-opacity="0" result="BackgroundImageFix"/>
<feColorMatrix in="SourceAlpha" type="matrix" values="0 0 0 0 0 0 0 0 0 0 0 0 0 0 0 0 0 0 127 0"/>
<feMorphology radius="10" operator="erode" in="SourceAlpha" result="effect1_dropShadow"/>
<feOffset dy="17"/>
<feGaussianBlur stdDeviation="22"/>
<feColorMatrix type="matrix" values="0 0 0 0 0 0 0 0 0 0 0 0 0 0 0 0 0 0 0.1 0"/>
<feBlend mode="normal" in2="BackgroundImageFix" result="effect1_dropShadow"/>
<feBlend mode="normal" in="SourceGraphic" in2="effect1_dropShadow" result="shape"/>
</filter>
<clipPath id="clip0">
<rect width="70" height="70" fill="white" transform="translate(67 61)"/>
</clipPath>
</defs>
</svg>
